# xmcd CD database file generated by Grip 3.0.6
# 
# Track frame offsets:
#       183
#       15205
#       30733
#       40273
#       49885
#       61023
#       71063
#       82778
#       91220
#       105650
# 
# Disc length: 1579 seconds
# 
# Revision: 1
# Processed by: cddbd v1.5PL3 Copyright (c) Steve Scherf et al.
# Submitted via: Grip 3.0.6
# 
DISCID=6e06290a
DTITLE=Anne Murray - Both Sides Now
DYEAR=1990
DGENRE=Country
TTITLE0=Both Sides Now
TTITLE1=There Goes My Everything
TTITLE2=Some Birds
TTITLE3=It's All Over
TTITLE4=Last Thing On My Mind
TTITLE5=For Baby
TTITLE6=All The Time
TTITLE7=Paths Of Victory
TTITLE8=Davids Song
TTITLE9=Buffalo In The Park
EXTD=
EXTT0=
EXTT1=
EXTT2=
EXTT3=
EXTT4=
EXTT5=
EXTT6=
EXTT7=
EXTT8=
EXTT9=
PLAYORDER=
